<?xml version="1.0" encoding="utf-8"?>
<!-- Generator: Adobe Illustrator 24.0.1, SVG Export Plug-In . SVG Version: 6.00 Build 0)  -->
<svg version="1.1" id="Camada_1" xmlns="http://www.w3.org/2000/svg" xmlns:xlink="http://www.w3.org/1999/xlink" x="0px" y="0px"
	 viewBox="0 0 423 214.4" style="enable-background:new 0 0 423 214.4;" xml:space="preserve">
<style type="text/css">
	.st0{fill:url(#SVGID_1_);}
	.st1{fill:url(#SVGID_2_);}
	.st2{fill:url(#SVGID_3_);}
	.st3{fill:url(#SVGID_4_);}
	.st4{fill:url(#SVGID_5_);}
	.st5{fill:url(#SVGID_6_);}
	.st6{fill:url(#SVGID_7_);}
	.st7{fill:url(#SVGID_8_);}
	.st8{fill:url(#SVGID_9_);}
	.st9{fill:url(#SVGID_10_);}
	.st10{fill:url(#SVGID_11_);}
	.st11{fill:url(#SVGID_12_);}
	.st12{fill:url(#SVGID_13_);}
	.st13{fill:url(#SVGID_14_);}
	.st14{fill:url(#SVGID_15_);}
	.st15{fill:#FF4000;}
	.st16{fill:url(#SVGID_16_);}
	.st17{fill:url(#SVGID_17_);}
	.st18{fill:url(#SVGID_18_);}
	.st19{fill:url(#SVGID_19_);}
	.st20{fill:url(#SVGID_20_);}
	.st21{fill:url(#SVGID_21_);}
</style>
<title>devices</title>
<g id="Camada_2_1_">
	<g id="Camada_5">
		
			<linearGradient id="SVGID_1_" gradientUnits="userSpaceOnUse" x1="192.6175" y1="67.1475" x2="261.6775" y2="-1.9125" gradientTransform="matrix(1 0 0 -1 0 216)">
			<stop  offset="0" style="stop-color:#FF4000"/>
			<stop  offset="0.1622" style="stop-color:#FF4000"/>
			<stop  offset="0.2945" style="stop-color:#FF4000"/>
			<stop  offset="0.4163" style="stop-color:#FF4000"/>
			<stop  offset="0.5318" style="stop-color:#FF4000"/>
			<stop  offset="0.6429" style="stop-color:#1856DE"/>
			<stop  offset="0.7507" style="stop-color:#1856DE"/>
			<stop  offset="0.8558" style="stop-color:#1856DE"/>
			<stop  offset="0.9562" style="stop-color:#1856DE"/>
			<stop  offset="1" style="stop-color:#0060F7"/>
		</linearGradient>
		<path class="st0" d="M285.8,176.1h-22l-9.8-2.4h-55.2l-8.3,2.4h-22c-4.1-0.1-7.5,3-7.6,7.1c-0.1,4.1,3,7.5,7.1,7.6
			c0.2,0,0.4,0,0.5,0h117.4c4.1,0.1,7.5-3,7.6-7.1c0.1-4.1-3-7.5-7.1-7.6C286.2,176,286,176,285.8,176.1z"/>
		
			<linearGradient id="SVGID_2_" gradientUnits="userSpaceOnUse" x1="126.3969" y1="236.1031" x2="327.9402" y2="34.5598" gradientTransform="matrix(1 0 0 -1 0 216)">
			<stop  offset="0" style="stop-color:#FF4000"/>
			<stop  offset="0.1622" style="stop-color:#FF4000"/>
			<stop  offset="0.2945" style="stop-color:#FF4000"/>
			<stop  offset="0.4163" style="stop-color:#FF4000"/>
			<stop  offset="0.5318" style="stop-color:#FF4000"/>
			<stop  offset="0.6429" style="stop-color:#1856DE"/>
			<stop  offset="0.7507" style="stop-color:#1856DE"/>
			<stop  offset="0.8558" style="stop-color:#1856DE"/>
			<stop  offset="0.9562" style="stop-color:#1856DE"/>
			<stop  offset="1" style="stop-color:#0060F7"/>
		</linearGradient>
		<path class="st1" d="M345,0H109.3c-4,0-7.3,3.3-7.3,7.3V154c0,4,3.3,7.3,7.3,7.3h81.2l9.3,2.9H254l9.8-2.9H345
			c4.1,0,7.3-3.3,7.3-7.3V7.3C352.3,3.3,349.1,0,345,0z M341.8,149.4c0,1.3-1.1,2.4-2.4,2.4H114.8c-1.3,0-2.4-1.1-2.4-2.4V12.3
			c0-1.3,1.1-2.4,2.4-2.4h224.6c1.3,0,2.4,1.1,2.4,2.4V149.4z"/>
		
			<linearGradient id="SVGID_3_" gradientUnits="userSpaceOnUse" x1="205.14" y1="69.29" x2="249.15" y2="25.28" gradientTransform="matrix(1 0 0 -1 0 216)">
			<stop  offset="0" style="stop-color:#FF4000"/>
			<stop  offset="0.1622" style="stop-color:#FF4000"/>
			<stop  offset="0.2945" style="stop-color:#FF4000"/>
			<stop  offset="0.4163" style="stop-color:#FF4000"/>
			<stop  offset="0.5318" style="stop-color:#FF4000"/>
			<stop  offset="0.6429" style="stop-color:#1856DE"/>
			<stop  offset="0.7507" style="stop-color:#1856DE"/>
			<stop  offset="0.8558" style="stop-color:#1856DE"/>
			<stop  offset="0.9562" style="stop-color:#1856DE"/>
			<stop  offset="1" style="stop-color:#0060F7"/>
		</linearGradient>
		<path class="st2" d="M190.5,176.1h73.4v-14.7h-73.4V176.1z"/>
		
			<linearGradient id="SVGID_4_" gradientUnits="userSpaceOnUse" x1="106.2755" y1="72.2297" x2="160.3374" y2="18.1577" gradientTransform="matrix(1 0 0 -1 0 216)">
			<stop  offset="0" style="stop-color:#FF4000"/>
			<stop  offset="0.1622" style="stop-color:#FF4000"/>
			<stop  offset="0.2945" style="stop-color:#FF4000"/>
			<stop  offset="0.4163" style="stop-color:#FF4000"/>
			<stop  offset="0.5318" style="stop-color:#FF4000"/>
			<stop  offset="0.6429" style="stop-color:#1856DE"/>
			<stop  offset="0.7507" style="stop-color:#1856DE"/>
			<stop  offset="0.8558" style="stop-color:#1856DE"/>
			<stop  offset="0.9562" style="stop-color:#1856DE"/>
			<stop  offset="1" style="stop-color:#0060F7"/>
		</linearGradient>
		<path class="st3" d="M153.9,139.8v63.6c0,1.1-0.9,2-2,2s-2-0.9-2-2v-63.6c0-3.3-2.7-6-6-6h-19.6c-3.3,0-6,2.7-6,6v63.6
			c0,3.3,2.7,6,6,6h19.5c1.1,0,2,0.9,2,2s-0.9,2-2,2h-19.5c-5.5,0-10-4.5-10-10v-63.6c0-5.5,4.5-10,10-10h19.5
			C149.4,129.8,153.9,134.3,153.9,139.8C153.9,139.8,153.9,139.8,153.9,139.8z"/>
		
			<linearGradient id="SVGID_5_" gradientUnits="userSpaceOnUse" x1="126.456" y1="42.7748" x2="129.2846" y2="39.9462" gradientTransform="matrix(1 0 0 -1 0 216)">
			<stop  offset="0" style="stop-color:#FF4000"/>
			<stop  offset="0.1622" style="stop-color:#FF4000"/>
			<stop  offset="0.2945" style="stop-color:#FF4000"/>
			<stop  offset="0.4163" style="stop-color:#FF4000"/>
			<stop  offset="0.5318" style="stop-color:#FF4000"/>
			<stop  offset="0.6429" style="stop-color:#1856DE"/>
			<stop  offset="0.7507" style="stop-color:#1856DE"/>
			<stop  offset="0.8558" style="stop-color:#1856DE"/>
			<stop  offset="0.9562" style="stop-color:#1856DE"/>
			<stop  offset="1" style="stop-color:#0060F7"/>
		</linearGradient>
		<path class="st4" d="M127.5,172.7c-1.1,0.2-1.8,1.3-1.6,2.4c0.2,1.1,1.3,1.8,2.4,1.6c0.9-0.2,1.6-1,1.6-1.9c0-1.1-0.9-2-2-2
			C127.8,172.6,127.6,172.7,127.5,172.7z"/>
		
			<linearGradient id="SVGID_6_" gradientUnits="userSpaceOnUse" x1="138.9804" y1="42.7804" x2="141.809" y2="39.9518" gradientTransform="matrix(1 0 0 -1 0 216)">
			<stop  offset="0" style="stop-color:#FF4000"/>
			<stop  offset="0.1622" style="stop-color:#FF4000"/>
			<stop  offset="0.2945" style="stop-color:#FF4000"/>
			<stop  offset="0.4163" style="stop-color:#FF4000"/>
			<stop  offset="0.5318" style="stop-color:#FF4000"/>
			<stop  offset="0.6429" style="stop-color:#1856DE"/>
			<stop  offset="0.7507" style="stop-color:#1856DE"/>
			<stop  offset="0.8558" style="stop-color:#1856DE"/>
			<stop  offset="0.9562" style="stop-color:#1856DE"/>
			<stop  offset="1" style="stop-color:#0060F7"/>
		</linearGradient>
		<path class="st5" d="M140,172.7c-1.1,0.2-1.8,1.3-1.6,2.4c0.2,1.1,1.3,1.8,2.4,1.6c0.9-0.2,1.6-1,1.6-1.9c0-1.1-0.9-2-2-2
			C140.3,172.6,140.1,172.7,140,172.7z"/>
		
			<linearGradient id="SVGID_7_" gradientUnits="userSpaceOnUse" x1="126.456" y1="72.6048" x2="129.2846" y2="69.7762" gradientTransform="matrix(1 0 0 -1 0 216)">
			<stop  offset="0" style="stop-color:#FF4000"/>
			<stop  offset="0.1622" style="stop-color:#FF4000"/>
			<stop  offset="0.2945" style="stop-color:#FF4000"/>
			<stop  offset="0.4163" style="stop-color:#FF4000"/>
			<stop  offset="0.5318" style="stop-color:#FF4000"/>
			<stop  offset="0.6429" style="stop-color:#1856DE"/>
			<stop  offset="0.7507" style="stop-color:#1856DE"/>
			<stop  offset="0.8558" style="stop-color:#1856DE"/>
			<stop  offset="0.9562" style="stop-color:#1856DE"/>
			<stop  offset="1" style="stop-color:#0060F7"/>
		</linearGradient>
		<path class="st6" d="M127.5,142.9c-1.1,0.2-1.8,1.3-1.6,2.4c0.2,1.1,1.3,1.8,2.4,1.6c0.9-0.2,1.6-1,1.6-1.9c0-1.1-0.9-2-2-2
			C127.8,142.8,127.6,142.8,127.5,142.9z"/>
		
			<linearGradient id="SVGID_8_" gradientUnits="userSpaceOnUse" x1="138.9804" y1="72.6104" x2="141.809" y2="69.7818" gradientTransform="matrix(1 0 0 -1 0 216)">
			<stop  offset="0" style="stop-color:#FF4000"/>
			<stop  offset="0.1622" style="stop-color:#FF4000"/>
			<stop  offset="0.2945" style="stop-color:#FF4000"/>
			<stop  offset="0.4163" style="stop-color:#FF4000"/>
			<stop  offset="0.5318" style="stop-color:#FF4000"/>
			<stop  offset="0.6429" style="stop-color:#1856DE"/>
			<stop  offset="0.7507" style="stop-color:#1856DE"/>
			<stop  offset="0.8558" style="stop-color:#1856DE"/>
			<stop  offset="0.9562" style="stop-color:#1856DE"/>
			<stop  offset="1" style="stop-color:#0060F7"/>
		</linearGradient>
		<path class="st7" d="M140,142.9c-1.1,0.2-1.8,1.3-1.6,2.4c0.2,1.1,1.3,1.8,2.4,1.6c0.9-0.2,1.6-1,1.6-1.9c0-1.1-0.9-2-2-2
			C140.3,142.8,140.1,142.8,140,142.9z"/>
		
			<linearGradient id="SVGID_9_" gradientUnits="userSpaceOnUse" x1="126.4204" y1="31.4904" x2="129.2604" y2="28.6504" gradientTransform="matrix(1 0 0 -1 0 216)">
			<stop  offset="0" style="stop-color:#FF4000"/>
			<stop  offset="0.1622" style="stop-color:#FF4000"/>
			<stop  offset="0.2945" style="stop-color:#FF4000"/>
			<stop  offset="0.4163" style="stop-color:#FF4000"/>
			<stop  offset="0.5318" style="stop-color:#FF4000"/>
			<stop  offset="0.6429" style="stop-color:#1856DE"/>
			<stop  offset="0.7507" style="stop-color:#1856DE"/>
			<stop  offset="0.8558" style="stop-color:#1856DE"/>
			<stop  offset="0.9562" style="stop-color:#1856DE"/>
			<stop  offset="1" style="stop-color:#0060F7"/>
		</linearGradient>
		<path class="st8" d="M127.5,184c-1.1,0.2-1.8,1.3-1.6,2.4c0.2,1.1,1.3,1.8,2.4,1.6c0.9-0.2,1.6-1,1.6-1.9c0-1.1-0.9-2-2-2
			C127.8,184,127.6,184,127.5,184z"/>
		
			<linearGradient id="SVGID_10_" gradientUnits="userSpaceOnUse" x1="138.9554" y1="31.4854" x2="141.784" y2="28.6568" gradientTransform="matrix(1 0 0 -1 0 216)">
			<stop  offset="0" style="stop-color:#FF4000"/>
			<stop  offset="0.1622" style="stop-color:#FF4000"/>
			<stop  offset="0.2945" style="stop-color:#FF4000"/>
			<stop  offset="0.4163" style="stop-color:#FF4000"/>
			<stop  offset="0.5318" style="stop-color:#FF4000"/>
			<stop  offset="0.6429" style="stop-color:#1856DE"/>
			<stop  offset="0.7507" style="stop-color:#1856DE"/>
			<stop  offset="0.8558" style="stop-color:#1856DE"/>
			<stop  offset="0.9562" style="stop-color:#1856DE"/>
			<stop  offset="1" style="stop-color:#0060F7"/>
		</linearGradient>
		<path class="st9" d="M140,184c-1.1,0.2-1.8,1.3-1.6,2.4c0.2,1.1,1.3,1.8,2.4,1.6c0.9-0.2,1.6-1,1.6-1.9c0-1.1-0.9-2-2-2
			C140.3,184,140.1,184,140,184z"/>
		
			<linearGradient id="SVGID_11_" gradientUnits="userSpaceOnUse" x1="126.4458" y1="20.2458" x2="129.2858" y2="17.4058" gradientTransform="matrix(1 0 0 -1 0 216)">
			<stop  offset="0" style="stop-color:#FF4000"/>
			<stop  offset="0.1622" style="stop-color:#FF4000"/>
			<stop  offset="0.2945" style="stop-color:#FF4000"/>
			<stop  offset="0.4163" style="stop-color:#FF4000"/>
			<stop  offset="0.5318" style="stop-color:#FF4000"/>
			<stop  offset="0.6429" style="stop-color:#1856DE"/>
			<stop  offset="0.7507" style="stop-color:#1856DE"/>
			<stop  offset="0.8558" style="stop-color:#1856DE"/>
			<stop  offset="0.9562" style="stop-color:#1856DE"/>
			<stop  offset="1" style="stop-color:#0060F7"/>
		</linearGradient>
		<path class="st10" d="M125.9,197.2c0,1.1,0.9,2,2,2s2-0.9,2-2c0-0.5-0.2-1-0.6-1.4c-0.8-0.8-2-0.8-2.8,0
			C126.1,196.1,125.9,196.6,125.9,197.2z"/>
		
			<linearGradient id="SVGID_12_" gradientUnits="userSpaceOnUse" x1="138.9755" y1="20.2402" x2="141.8055" y2="17.4002" gradientTransform="matrix(1 0 0 -1 0 216)">
			<stop  offset="0" style="stop-color:#FF4000"/>
			<stop  offset="0.1622" style="stop-color:#FF4000"/>
			<stop  offset="0.2945" style="stop-color:#FF4000"/>
			<stop  offset="0.4163" style="stop-color:#FF4000"/>
			<stop  offset="0.5318" style="stop-color:#FF4000"/>
			<stop  offset="0.6429" style="stop-color:#1856DE"/>
			<stop  offset="0.7507" style="stop-color:#1856DE"/>
			<stop  offset="0.8558" style="stop-color:#1856DE"/>
			<stop  offset="0.9562" style="stop-color:#1856DE"/>
			<stop  offset="1" style="stop-color:#0060F7"/>
		</linearGradient>
		<path class="st11" d="M139.6,195.3c-1,0.4-1.5,1.6-1.1,2.6c0.4,1,1.6,1.5,2.6,1.1c0.9-0.4,1.4-1.3,1.2-2.2
			c-0.2-1.1-1.3-1.8-2.3-1.6C139.9,195.2,139.7,195.3,139.6,195.3z"/>
		
			<linearGradient id="SVGID_13_" gradientUnits="userSpaceOnUse" x1="127.9187" y1="61.5313" x2="140.3087" y2="49.1413" gradientTransform="matrix(1 0 0 -1 0 216)">
			<stop  offset="0" style="stop-color:#FF4000"/>
			<stop  offset="0.1622" style="stop-color:#FF4000"/>
			<stop  offset="0.2945" style="stop-color:#FF4000"/>
			<stop  offset="0.4163" style="stop-color:#FF4000"/>
			<stop  offset="0.5318" style="stop-color:#FF4000"/>
			<stop  offset="0.6429" style="stop-color:#1856DE"/>
			<stop  offset="0.7507" style="stop-color:#1856DE"/>
			<stop  offset="0.8558" style="stop-color:#1856DE"/>
			<stop  offset="0.9562" style="stop-color:#1856DE"/>
			<stop  offset="1" style="stop-color:#0060F7"/>
		</linearGradient>
		<circle class="st12" cx="134.1" cy="160.7" r="8.8"/>
		
			<linearGradient id="SVGID_14_" gradientUnits="userSpaceOnUse" x1="131.7424" y1="51.2054" x2="136.4924" y2="59.4454" gradientTransform="matrix(1 0 0 -1 0 216)">
			<stop  offset="0" style="stop-color:#FF4000"/>
			<stop  offset="0.1622" style="stop-color:#FF4000"/>
			<stop  offset="0.2945" style="stop-color:#FF4000"/>
			<stop  offset="0.4163" style="stop-color:#FF4000"/>
			<stop  offset="0.5318" style="stop-color:#FF4000"/>
			<stop  offset="0.6429" style="stop-color:#1856DE"/>
			<stop  offset="0.7507" style="stop-color:#1856DE"/>
			<stop  offset="0.8558" style="stop-color:#1856DE"/>
			<stop  offset="0.9562" style="stop-color:#1856DE"/>
			<stop  offset="1" style="stop-color:#0060F7"/>
		</linearGradient>
		<circle class="st13" cx="134.1" cy="160.7" r="4.8"/>
		
			<linearGradient id="SVGID_15_" gradientUnits="userSpaceOnUse" x1="0.493" y1="88.6681" x2="86.9311" y2="2.23" gradientTransform="matrix(1 0 0 -1 0 216)">
			<stop  offset="0" style="stop-color:#FF4000"/>
			<stop  offset="0.1622" style="stop-color:#FF4000"/>
			<stop  offset="0.2945" style="stop-color:#FF4000"/>
			<stop  offset="0.4163" style="stop-color:#FF4000"/>
			<stop  offset="0.5318" style="stop-color:#FF4000"/>
			<stop  offset="0.6429" style="stop-color:#1856DE"/>
			<stop  offset="0.7507" style="stop-color:#1856DE"/>
			<stop  offset="0.8558" style="stop-color:#1856DE"/>
			<stop  offset="0.9562" style="stop-color:#1856DE"/>
			<stop  offset="1" style="stop-color:#0060F7"/>
		</linearGradient>
		<path class="st14" d="M91.8,140.5c-1.5,0-2.8,1.2-2.8,2.7c0,0,0,0,0,0v57.2c0,4.6-3.7,8.3-8.3,8.3H13.9c-4.6,0-8.3-3.7-8.3-8.3
			v-66.9c0-4.6,3.7-8.3,8.3-8.3h17c1.5,0,2.8-1.2,2.8-2.8c0-1.5-1.2-2.8-2.8-2.8h-17c-7.6,0-13.8,6.2-13.9,13.8v66.9
			c0,7.6,6.2,13.8,13.9,13.9h66.8c7.6,0,13.8-6.2,13.8-13.9v-57.2C94.6,141.7,93.3,140.5,91.8,140.5L91.8,140.5z"/>
		<path class="st15" d="M29.1,149.8c-1.2,0.1-2,1.1-1.9,2.2c0.1,1,0.9,1.9,1.9,1.9h4.2v12.5c-0.1,1.2,0.8,2.1,1.9,2.2
			c1.2,0.1,2.1-0.8,2.2-1.9c0-0.1,0-0.2,0-0.3V154h4.2c1.2-0.1,2-1.1,1.9-2.2c-0.1-1-0.9-1.9-1.9-1.9L29.1,149.8z"/>
		<path class="st15" d="M49.2,150c-1.1,0.5-1.5,1.7-1.1,2.7l6.3,14.6c0.4,1.1,1.7,1.6,2.7,1.1c0.5-0.2,0.9-0.6,1.1-1.1l6.3-14.6
			c0.5-1.1,0-2.3-1.1-2.7s-2.3,0-2.7,1.1l-4.3,10.1l-4.3-10.1C51.4,150,50.2,149.5,49.2,150z"/>
		<path class="st15" d="M37.1,182.2c0,1.3-0.2,2.5-0.6,3.7c-0.3,1-0.9,1.9-1.6,2.7c-0.7,0.8-1.6,1.3-2.5,1.7
			c-1.1,0.4-2.2,0.6-3.4,0.6c-1,0-2-0.1-3-0.3c-1-0.2-2-0.5-3-0.9v-22.3h2.9v6.4l-0.1,3.1c0.7-1,1.6-1.8,2.6-2.4
			c0.9-0.5,2-0.7,3-0.7c0.9,0,1.7,0.2,2.5,0.6c0.7,0.4,1.3,1,1.8,1.7c0.5,0.8,0.9,1.7,1.1,2.6C37,179.9,37.1,181.1,37.1,182.2z
			 M34.2,182.3c0-0.8-0.1-1.6-0.2-2.4c-0.1-0.6-0.3-1.3-0.6-1.9c-0.2-0.5-0.6-0.9-1-1.2c-0.5-0.3-1-0.5-1.5-0.4
			c-0.4,0-0.7,0.1-1.1,0.2c-0.4,0.1-0.8,0.3-1.2,0.6c-0.5,0.3-0.9,0.7-1.3,1.1c-0.5,0.5-1,1.1-1.4,1.6v8c0.6,0.2,1.1,0.4,1.7,0.5
			c0.5,0.1,1.1,0.2,1.7,0.2c0.6,0,1.3-0.1,1.9-0.3c0.6-0.2,1.1-0.6,1.6-1.1c0.5-0.6,0.9-1.2,1.1-1.9
			C34.1,184.3,34.2,183.3,34.2,182.3z"/>
		<path class="st15" d="M29,191.3c-1,0-2-0.1-3-0.3c-1.1-0.2-2.1-0.5-3.1-0.9l-0.2-0.1v-22.9h3.6v6.8l-0.1,2c0.6-0.6,1.3-1.2,2-1.6
			c1-0.5,2.1-0.7,3.2-0.7c0.9,0,1.8,0.2,2.7,0.6c0.8,0.4,1.4,1,1.9,1.8c0.5,0.8,0.9,1.8,1.1,2.7c0.3,1.1,0.4,2.3,0.4,3.5
			c0,1.3-0.2,2.6-0.6,3.8c-0.4,1.1-0.9,2-1.7,2.9c-0.7,0.8-1.7,1.4-2.7,1.8C31.4,191.1,30.2,191.3,29,191.3z M23.4,189.5
			c0.9,0.3,1.8,0.6,2.7,0.8c2,0.5,4.2,0.4,6.2-0.3c0.9-0.4,1.7-0.9,2.4-1.6c0.7-0.8,1.2-1.6,1.5-2.6c0.4-1.1,0.6-2.3,0.5-3.6
			c0-1.1-0.1-2.2-0.3-3.3c-0.2-0.9-0.5-1.7-1-2.5c-0.4-0.6-1-1.2-1.7-1.6c-0.7-0.4-1.5-0.6-2.3-0.5c-1,0-2,0.2-2.9,0.6
			c-1,0.5-1.9,1.3-2.5,2.2l-0.7,1l0.2-4.3v-6h-2.1L23.4,189.5z M29.2,189c-0.6,0-1.2-0.1-1.7-0.2c-0.6-0.1-1.2-0.3-1.8-0.5l-0.2-0.1
			v-8.4l0.1-0.1c0.5-0.6,0.9-1.1,1.5-1.7c0.4-0.4,0.9-0.8,1.3-1.1c0.4-0.3,0.8-0.5,1.3-0.6c1-0.3,2.1-0.2,3,0.3
			c0.5,0.3,0.9,0.8,1.2,1.3c0.3,0.6,0.5,1.3,0.6,2c0.1,0.8,0.2,1.6,0.2,2.4c0,1.1-0.1,2.1-0.4,3.1c-0.2,0.7-0.6,1.4-1.1,2
			c-0.5,0.5-1.1,0.9-1.7,1.1C30.6,188.9,29.9,189,29.2,189L29.2,189z M26.2,187.6c0.5,0.2,0.9,0.3,1.4,0.4c1.1,0.3,2.3,0.2,3.3-0.1
			c0.5-0.2,1-0.5,1.4-0.9c0.5-0.5,0.8-1.1,1-1.8c0.3-0.9,0.4-1.9,0.4-2.9c0-0.8-0.1-1.6-0.2-2.3c-0.1-0.6-0.3-1.2-0.6-1.8
			c-0.2-0.4-0.5-0.8-0.9-1.1c-0.7-0.4-1.5-0.5-2.3-0.2c-0.4,0.1-0.7,0.3-1.1,0.5c-0.4,0.3-0.8,0.6-1.2,1c-0.5,0.5-0.9,1-1.3,1.5
			L26.2,187.6z"/>
		<path class="st15" d="M54.5,182.3c0,1.2-0.2,2.4-0.5,3.5c-0.3,1-0.9,1.9-1.6,2.8c-0.7,0.8-1.5,1.4-2.4,1.8
			c-1.1,0.4-2.2,0.6-3.3,0.6c-1.1,0-2.2-0.2-3.2-0.6c-0.9-0.4-1.7-0.9-2.4-1.6c-0.7-0.8-1.2-1.7-1.5-2.6c-0.4-1.2-0.5-2.4-0.5-3.6
			c0-1.2,0.2-2.4,0.5-3.5c0.3-1,0.9-1.9,1.6-2.7c0.7-0.8,1.5-1.4,2.5-1.8c1.1-0.4,2.2-0.6,3.3-0.6c1.1,0,2.2,0.2,3.2,0.6
			c0.9,0.4,1.7,0.9,2.4,1.6c0.7,0.8,1.1,1.7,1.4,2.6C54.4,179.9,54.6,181.1,54.5,182.3z M51.6,182.5c0-0.9-0.1-1.8-0.3-2.7
			c-0.2-0.7-0.5-1.3-1-1.9c-0.4-0.5-0.9-0.9-1.5-1.1c-0.6-0.3-1.3-0.4-2-0.4c-0.8,0-1.5,0.2-2.2,0.5c-0.6,0.3-1.1,0.8-1.5,1.3
			c-0.4,0.6-0.7,1.3-0.9,2c-0.2,0.8-0.3,1.5-0.3,2.3c0,0.9,0.1,1.8,0.3,2.7c0.2,0.7,0.5,1.3,1,1.9c0.4,0.5,0.9,0.9,1.5,1.1
			c0.6,0.3,1.3,0.4,2,0.4c0.8,0,1.5-0.2,2.2-0.5c0.6-0.3,1.1-0.8,1.5-1.3c0.4-0.6,0.7-1.3,0.9-2C51.5,184.1,51.6,183.3,51.6,182.5z"
			/>
		<path class="st15" d="M46.6,191.4c-1.1,0-2.3-0.2-3.3-0.6c-1-0.4-1.8-1-2.5-1.7c-0.7-0.8-1.3-1.8-1.6-2.8
			c-0.4-1.2-0.5-2.5-0.5-3.8c0-1.2,0.2-2.5,0.6-3.6c0.4-1.1,0.9-2,1.6-2.9c0.7-0.8,1.6-1.4,2.6-1.9c1.1-0.5,2.3-0.7,3.5-0.7
			c1.1,0,2.3,0.2,3.3,0.6c1,0.4,1.8,1,2.5,1.7c0.7,0.8,1.3,1.7,1.6,2.8c0.4,1.2,0.6,2.5,0.5,3.7c0,1.2-0.2,2.5-0.6,3.6
			c-0.3,1.1-0.9,2-1.6,2.9c-0.7,0.8-1.6,1.4-2.6,1.9C49,191.2,47.8,191.4,46.6,191.4z M47,174.3c-1.1,0-2.2,0.2-3.2,0.6
			c-0.9,0.4-1.7,1-2.3,1.7c-0.7,0.8-1.2,1.6-1.5,2.6c-0.4,1.1-0.5,2.2-0.5,3.4c0,1.2,0.1,2.4,0.5,3.5c0.3,0.9,0.8,1.8,1.4,2.5
			c0.6,0.7,1.4,1.2,2.2,1.5c1,0.4,2,0.5,3,0.5c1.1,0,2.2-0.2,3.2-0.6c0.9-0.4,1.7-1,2.3-1.7c0.7-0.8,1.2-1.7,1.5-2.6
			c0.4-1.1,0.5-2.3,0.5-3.4c0-1.2-0.1-2.4-0.5-3.5c-0.3-0.9-0.8-1.8-1.4-2.5c-0.6-0.7-1.4-1.2-2.3-1.5C49,174.5,48,174.3,47,174.3z
			 M46.8,189c-0.7,0-1.5-0.1-2.2-0.4c-0.6-0.3-1.2-0.7-1.6-1.3c-0.5-0.6-0.8-1.3-1-2.1c-0.3-0.9-0.4-1.8-0.3-2.8
			c0-0.8,0.1-1.6,0.3-2.4c0.2-0.7,0.5-1.4,0.9-2.1c0.4-0.6,1-1.1,1.6-1.4c0.7-0.4,1.6-0.6,2.4-0.6c0.7,0,1.5,0.1,2.2,0.4
			c0.6,0.3,1.2,0.7,1.7,1.3c0.5,0.6,0.8,1.3,1,2c0.2,0.9,0.4,1.8,0.3,2.8c0,0.8-0.1,1.6-0.3,2.4c-0.2,0.7-0.5,1.4-0.9,2.1
			c-0.4,0.6-1,1.1-1.6,1.5C48.4,188.8,47.6,189,46.8,189z M46.8,176.7c-0.7,0-1.4,0.1-2,0.5c-0.5,0.3-1,0.7-1.4,1.2
			c-0.4,0.6-0.6,1.2-0.8,1.8c-0.2,0.7-0.3,1.5-0.3,2.2c0,0.9,0.1,1.7,0.3,2.6c0.2,0.6,0.5,1.3,0.9,1.8c0.4,0.4,0.8,0.8,1.4,1
			c0.6,0.2,1.2,0.4,1.9,0.4c0.7,0,1.4-0.1,2-0.5c0.5-0.3,1-0.7,1.4-1.2c0.4-0.6,0.6-1.2,0.8-1.8c0.2-0.7,0.3-1.5,0.3-2.3
			c0-0.9-0.1-1.7-0.3-2.6c-0.2-0.6-0.5-1.3-0.9-1.8c-0.4-0.4-0.8-0.8-1.4-1C48,176.9,47.4,176.7,46.8,176.7L46.8,176.7z"/>
		<path class="st15" d="M72.2,190.7h-3.8l-4.4-6.3l-4.4,6.3h-3.7l6.4-8.3l-6.1-8.2h3.7l4.3,6.4l4.3-6.4H72l-6.2,8.3L72.2,190.7z"/>
		<path class="st15" d="M73,191.1h-4.8l-4.3-6l-4.2,6h-4.7l6.7-8.7l-6.4-8.6H60l4.1,6.1l4.1-6.1h4.5l-6.5,8.7L73,191.1z M68.6,190.4
			h2.8l-6.2-7.9l5.9-7.9h-2.6l-4.5,6.6l-4.5-6.6h-2.7l5.8,7.9l-6.1,7.9h2.7l4.6-6.6L68.6,190.4z"/>
		
			<linearGradient id="SVGID_16_" gradientUnits="userSpaceOnUse" x1="67.108" y1="79.9981" x2="74.462" y2="72.6441" gradientTransform="matrix(1 0 0 -1 0 216)">
			<stop  offset="0" style="stop-color:#FF4000"/>
			<stop  offset="0.1622" style="stop-color:#FF4000"/>
			<stop  offset="0.2945" style="stop-color:#FF4000"/>
			<stop  offset="0.4163" style="stop-color:#FF4000"/>
			<stop  offset="0.5318" style="stop-color:#FF4000"/>
			<stop  offset="0.6429" style="stop-color:#1856DE"/>
			<stop  offset="0.7507" style="stop-color:#1856DE"/>
			<stop  offset="0.8558" style="stop-color:#1856DE"/>
			<stop  offset="0.9562" style="stop-color:#1856DE"/>
			<stop  offset="1" style="stop-color:#0060F7"/>
		</linearGradient>
		<path class="st16" d="M74.5,136c2,2,2,5.3,0,7.4c-2,2-5.3,2-7.4,0s-2-5.3,0-7.4c0,0,0,0,0,0C69.1,134,72.4,134,74.5,136z"/>
		
			<linearGradient id="SVGID_17_" gradientUnits="userSpaceOnUse" x1="63.4375" y1="94.4475" x2="78.1375" y2="79.7475" gradientTransform="matrix(1 0 0 -1 0 216)">
			<stop  offset="0" style="stop-color:#FF4000"/>
			<stop  offset="0.1622" style="stop-color:#FF4000"/>
			<stop  offset="0.2945" style="stop-color:#FF4000"/>
			<stop  offset="0.4163" style="stop-color:#FF4000"/>
			<stop  offset="0.5318" style="stop-color:#FF4000"/>
			<stop  offset="0.6429" style="stop-color:#1856DE"/>
			<stop  offset="0.7507" style="stop-color:#1856DE"/>
			<stop  offset="0.8558" style="stop-color:#1856DE"/>
			<stop  offset="0.9562" style="stop-color:#1856DE"/>
			<stop  offset="1" style="stop-color:#0060F7"/>
		</linearGradient>
		<path class="st17" d="M83.5,130.9c1.1-1.1,1.1-2.8,0-3.9c-7-7-18.4-7-25.5,0c0,0,0,0,0,0c-1.1,1.1-1.1,2.9,0,3.9
			c1.1,1.1,2.9,1.1,3.9,0c4.9-4.9,12.8-4.9,17.6,0C80.7,131.9,82.5,131.9,83.5,130.9L83.5,130.9z"/>
		
			<linearGradient id="SVGID_18_" gradientUnits="userSpaceOnUse" x1="58.2925" y1="109.8825" x2="83.2775" y2="84.8975" gradientTransform="matrix(1 0 0 -1 0 216)">
			<stop  offset="0" style="stop-color:#FF4000"/>
			<stop  offset="0.1622" style="stop-color:#FF4000"/>
			<stop  offset="0.2945" style="stop-color:#FF4000"/>
			<stop  offset="0.4163" style="stop-color:#FF4000"/>
			<stop  offset="0.5318" style="stop-color:#FF4000"/>
			<stop  offset="0.6429" style="stop-color:#1856DE"/>
			<stop  offset="0.7507" style="stop-color:#1856DE"/>
			<stop  offset="0.8558" style="stop-color:#1856DE"/>
			<stop  offset="0.9562" style="stop-color:#1856DE"/>
			<stop  offset="1" style="stop-color:#0060F7"/>
		</linearGradient>
		<path class="st18" d="M47.8,116.7c-1.1,1.1-1.1,2.8,0,3.9c1.1,1.1,2.8,1.1,3.9,0l0,0c10.5-10.6,27.6-10.6,38.2,0c0,0,0,0,0,0
			c1.1,1.1,2.8,1.1,3.9,0s1.1-2.8,0-3.9C81.1,103.9,60.5,103.9,47.8,116.7C47.8,116.6,47.8,116.6,47.8,116.7z"/>
		
			<linearGradient id="SVGID_19_" gradientUnits="userSpaceOnUse" x1="349.5042" y1="101.5558" x2="433.9029" y2="17.1571" gradientTransform="matrix(1 0 0 -1 0 216)">
			<stop  offset="0" style="stop-color:#FF4000"/>
			<stop  offset="0.1622" style="stop-color:#FF4000"/>
			<stop  offset="0.2945" style="stop-color:#FF4000"/>
			<stop  offset="0.4163" style="stop-color:#FF4000"/>
			<stop  offset="0.5318" style="stop-color:#FF4000"/>
			<stop  offset="0.6429" style="stop-color:#1856DE"/>
			<stop  offset="0.7507" style="stop-color:#1856DE"/>
			<stop  offset="0.8558" style="stop-color:#1856DE"/>
			<stop  offset="0.9562" style="stop-color:#1856DE"/>
			<stop  offset="1" style="stop-color:#0060F7"/>
		</linearGradient>
		<path class="st19" d="M415.1,214.4h-46.9c-4.3,0-7.8-3.5-7.8-7.9v-99.7c0-4.3,3.5-7.8,7.8-7.8h46.9c4.3,0,7.8,3.5,7.9,7.8v99.7
			C423,210.8,419.5,214.3,415.1,214.4z M368.3,104.8c-1.1,0-2,0.9-2,2v99.7c0,1.1,0.9,2,2,2h46.9c1.1,0,2-0.9,2-2v-99.7
			c0-1.1-0.9-2-2-2L368.3,104.8z"/>
		
			<linearGradient id="SVGID_20_" gradientUnits="userSpaceOnUse" x1="377.885" y1="30.385" x2="405.515" y2="2.755" gradientTransform="matrix(1 0 0 -1 0 216)">
			<stop  offset="0" style="stop-color:#FF4000"/>
			<stop  offset="0.1622" style="stop-color:#FF4000"/>
			<stop  offset="0.2945" style="stop-color:#FF4000"/>
			<stop  offset="0.4163" style="stop-color:#FF4000"/>
			<stop  offset="0.5318" style="stop-color:#FF4000"/>
			<stop  offset="0.6429" style="stop-color:#1856DE"/>
			<stop  offset="0.7507" style="stop-color:#1856DE"/>
			<stop  offset="0.8558" style="stop-color:#1856DE"/>
			<stop  offset="0.9562" style="stop-color:#1856DE"/>
			<stop  offset="1" style="stop-color:#0060F7"/>
		</linearGradient>
		<rect x="366.3" y="197.2" class="st20" width="50.9" height="4.4"/>
	</g>
</g>
<linearGradient id="SVGID_21_" gradientUnits="userSpaceOnUse" x1="246.8944" y1="315.2545" x2="280.7433" y2="281.3956" gradientTransform="matrix(1 0 0 -1 0 216)">
	<stop  offset="0" style="stop-color:#FF4000"/>
	<stop  offset="1" style="stop-color:#0060F7"/>
</linearGradient>
<path class="st21" d="M280.7-99.3c15.1,15.1,4.3,40.9-16.9,40.9s-32-25.8-16.9-40.9C256.2-108.6,271.4-108.6,280.7-99.3
	C280.7-99.3,280.7-99.3,280.7-99.3z"/>
</svg>
