<?xml version="1.0" encoding="utf-8"?>
<!-- Generator: Adobe Illustrator 24.0.1, SVG Export Plug-In . SVG Version: 6.00 Build 0)  -->
<svg version="1.1" id="Camada_1" xmlns="http://www.w3.org/2000/svg" xmlns:xlink="http://www.w3.org/1999/xlink" x="0px" y="0px"
	 viewBox="0 0 219.6 174" style="enable-background:new 0 0 219.6 174;" xml:space="preserve">
<style type="text/css">
	.st0{fill:url(#SVGID_1_);}
	.st1{fill:url(#SVGID_2_);}
	.st2{fill:url(#SVGID_3_);}
</style>
<title>internet</title>
<g id="Camada_2_1_">
	<g id="Camada_5">
		
			<linearGradient id="SVGID_1_" gradientUnits="userSpaceOnUse" x1="92.8982" y1="42.8682" x2="126.747" y2="9.0093" gradientTransform="matrix(1 0 0 -1 0 176)">
			<stop  offset="0" style="stop-color:#FF4000"/>
			<stop  offset="1" style="stop-color:#0060F7"/>
		</linearGradient>
		<path class="st0" d="M126.8,133.1c15.1,15.1,4.3,40.9-16.9,40.9s-32-25.8-16.9-40.9C102.2,123.8,117.4,123.8,126.8,133.1
			C126.7,133.1,126.7,133.1,126.8,133.1z"/>
		
			<linearGradient id="SVGID_2_" gradientUnits="userSpaceOnUse" x1="76.179" y1="109.659" x2="143.889" y2="41.949" gradientTransform="matrix(1 0 0 -1 0 176)">
			<stop  offset="0" style="stop-color:#FF4000"/>
			<stop  offset="1" style="stop-color:#0060F7"/>
		</linearGradient>
		<path class="st1" d="M168.5,109.4c5-5,5-13.1,0-18C136.1,59,83.6,58.9,51.2,91.3c0,0-0.1,0.1-0.1,0.1c-4.7,5.2-4.4,13.3,0.8,18
			c4.9,4.4,12.3,4.4,17.2,0c22.4-22.4,58.8-22.5,81.2,0c0,0,0,0,0,0C155.4,114.4,163.5,114.4,168.5,109.4
			C168.5,109.4,168.5,109.4,168.5,109.4L168.5,109.4z"/>
		
			<linearGradient id="SVGID_3_" gradientUnits="userSpaceOnUse" x1="52.5329" y1="180.7929" x2="167.6429" y2="65.6829" gradientTransform="matrix(1 0 0 -1 0 176)">
			<stop  offset="0" style="stop-color:#FF4000"/>
			<stop  offset="1" style="stop-color:#0060F7"/>
		</linearGradient>
		<path class="st2" d="M3.7,44c-4.7,5.3-4.2,13.3,1.1,18c4.9,4.3,12.2,4.3,17,0c48.6-48.6,127.4-48.6,176,0c0,0,0,0,0,0
			c5.1,4.9,13.2,4.7,18.1-0.3c4.7-4.9,4.8-12.7,0.1-17.7c-58.5-58.6-153.4-58.7-212-0.1C3.8,43.9,3.8,44,3.7,44z"/>
	</g>
</g>
</svg>
